<?xml version="1.0" encoding="UTF-8" standalone="no"?>
<svg
   xmlns:dc="http://purl.org/dc/elements/1.1/"
   xmlns:cc="http://creativecommons.org/ns#"
   xmlns:rdf="http://www.w3.org/1999/02/22-rdf-syntax-ns#"
   xmlns:svg="http://www.w3.org/2000/svg"
   xmlns="http://www.w3.org/2000/svg"
   id="svg8"
   version="1.1"
   viewBox="0 0 10.583333 10.583333"
   height="10.583333mm"
   width="10.583333mm">
  <defs
     id="defs2" />
  <metadata
     id="metadata5">
    <rdf:RDF>
      <cc:Work
         rdf:about="">
        <dc:format>image/svg+xml</dc:format>
        <dc:type
           rdf:resource="http://purl.org/dc/dcmitype/StillImage" />
        <dc:title></dc:title>
      </cc:Work>
    </rdf:RDF>
  </metadata>
  <g
     transform="translate(-10.583334,-92.136907)"
     id="layer1">
    <path
       id="path815"
       transform="matrix(0.26458333,0,0,0.26458333,10.583334,92.136907)"
       d="M 20 0 A 19.999999 19.999999 0 0 0 0 20 A 19.999999 19.999999 0 0 0 20 40 A 19.999999 19.999999 0 0 0 40 20 A 19.999999 19.999999 0 0 0 20 0 z M 18.660156 7.0976562 L 21.339844 7.0976562 L 21.339844 18.660156 L 32.902344 18.660156 L 32.902344 21.339844 L 21.339844 21.339844 L 21.339844 32.902344 L 18.660156 32.902344 L 18.660156 21.339844 L 7.0976562 21.339844 L 7.0976562 18.660156 L 18.660156 18.660156 L 18.660156 7.0976562 z "
       style="opacity:1;fill:#003b5c;fill-opacity:1;stroke:none;stroke-width:1.32075465;stroke-linecap:round;stroke-miterlimit:4;stroke-dasharray:none;stroke-dashoffset:0;stroke-opacity:1;paint-order:stroke fill markers" />
  </g>
</svg>
