<?xml version="1.0" encoding="UTF-8" standalone="no"?>
<svg
   xmlns:dc="http://purl.org/dc/elements/1.1/"
   xmlns:cc="http://creativecommons.org/ns#"
   xmlns:rdf="http://www.w3.org/1999/02/22-rdf-syntax-ns#"
   xmlns:svg="http://www.w3.org/2000/svg"
   xmlns="http://www.w3.org/2000/svg"
   id="svg834"
   version="1.1"
   viewBox="0 0 10.583333 10.583333"
   height="10.583333mm"
   width="10.583333mm">
  <defs
     id="defs828" />
  <metadata
     id="metadata831">
    <rdf:RDF>
      <cc:Work
         rdf:about="">
        <dc:format>image/svg+xml</dc:format>
        <dc:type
           rdf:resource="http://purl.org/dc/dcmitype/StillImage" />
        <dc:title></dc:title>
      </cc:Work>
    </rdf:RDF>
  </metadata>
  <g
     transform="translate(-27.970239,-223.67261)"
     id="layer1">
    <path
       transform="matrix(0.26458333,0,0,0.26458333,27.970239,223.67261)"
       id="path815-8"
       d="M 20 0 A 19.999999 19.999999 0 0 0 0 20 A 19.999999 19.999999 0 0 0 20 40 A 19.999999 19.999999 0 0 0 40 20 A 19.999999 19.999999 0 0 0 20 0 z M 11.824219 9.9296875 L 20 18.105469 L 28.175781 9.9296875 L 30.070312 11.824219 L 21.894531 20 L 30.070312 28.175781 L 28.175781 30.070312 L 20 21.894531 L 11.824219 30.070312 L 9.9296875 28.175781 L 18.105469 20 L 9.9296875 11.824219 L 11.824219 9.9296875 z "
       style="opacity:1;fill:#c87137;fill-opacity:1;stroke:none;stroke-width:1.32075465;stroke-linecap:round;stroke-miterlimit:4;stroke-dasharray:none;stroke-dashoffset:0;stroke-opacity:1;paint-order:stroke fill markers" />
  </g>
</svg>
